<svg fill="#EB1616" height="200px" width="200px" version="1.1" id="Layer_1" xmlns="http://www.w3.org/2000/svg" xmlns:xlink="http://www.w3.org/1999/xlink" viewBox="0 0 511.991 511.991" xml:space="preserve" stroke="#EB1616"><g id="SVGRepo_bgCarrier" stroke-width="0"></g><g id="SVGRepo_tracerCarrier" stroke-linecap="round" stroke-linejoin="round"></g><g id="SVGRepo_iconCarrier"> <g> <g> <path d="M477.538,486.391c-23.526,0-42.667-19.14-42.667-42.667c0-37.641-30.626-68.267-68.267-68.267 c-5.752,0-11.298,0.794-16.64,2.133l-80.802-97.374c-0.384-0.486-0.606-1.05-0.904-1.57 c7.859-10.035,36.275-46.37,140.006-179.072c19.285-26.146,33.314-55.313,41.702-86.707l1.331-5.905L441.818,0l-64.529,37.308 L238.682,202.069L100.066,37.308L40.418,2.833l-5.359-2.782L25.92,7.39l1.468,5.487c8.388,31.386,22.417,60.553,41.847,86.895 l139.878,178.884c-0.256,0.512-0.503,1.041-0.794,1.408l-80.956,97.562c-5.376-1.365-10.965-2.167-16.759-2.167 c-37.641,0-68.267,30.626-68.267,68.267c0,37.641,30.626,68.267,68.267,68.267c37.641,0,68.267-30.626,68.267-68.267 c0-13.568-4.028-26.197-10.88-36.838l70.69-90.411l70.605,90.3c-6.895,10.667-10.948,23.33-10.948,36.949 c0,37.641,30.626,68.267,68.267,68.267c26.197,0,48.964-14.848,60.399-36.557c10.59,16.802,29.252,28.023,50.534,28.023 c4.71,0,8.533-3.823,8.533-8.533S482.249,486.391,477.538,486.391z M110.605,494.925c-28.237,0-51.2-22.963-51.2-51.2 c0-28.237,22.963-51.2,51.2-51.2c5.197,0,10.206,0.794,14.933,2.236l1.903,0.666c0.034,0.009,0.06,0.026,0.094,0.034 c4.506,1.579,8.73,3.78,12.587,6.502c0.145,0.102,0.282,0.213,0.418,0.316c1.715,1.229,3.337,2.577,4.89,4.019 c0.179,0.171,0.375,0.333,0.555,0.503c1.638,1.57,3.183,3.243,4.608,5.026c6.997,8.764,11.213,19.84,11.213,31.898 C161.805,471.962,138.842,494.925,110.605,494.925z M156.787,393.506c-0.307-0.273-0.649-0.503-0.947-0.777 c-1.365-1.203-2.765-2.347-4.224-3.448c-0.512-0.392-1.024-0.785-1.553-1.16c-1.826-1.306-3.721-2.517-5.675-3.644 c-0.12-0.068-0.23-0.154-0.35-0.222l76.015-91.605l7.791,9.975L156.787,393.506z M240.371,257.758 c-1.664,1.664-3.849,2.5-6.033,2.5c-2.185,0-4.369-0.836-6.033-2.5l-12.8-12.8c-3.336-3.337-3.336-8.73,0-12.066 c3.337-3.337,8.73-3.337,12.066,0l12.8,12.8C243.708,249.028,243.708,254.421,240.371,257.758z M265.741,234.231l-0.128-0.145 c-0.009-0.009-0.009-0.017-0.009-0.017l-6.315-7.501l-9.463-11.255L388.425,50.586l38.912-22.494 c-7.885,21.897-18.85,42.436-32.657,61.167c-1.092,1.391-84.369,107.913-123.11,157.466c-0.034-0.154-0.111-0.29-0.145-0.435 c-0.393-1.818-0.99-3.593-1.732-5.333c-0.239-0.555-0.521-1.084-0.794-1.621c-0.828-1.647-1.783-3.234-2.935-4.745 C265.869,234.479,265.826,234.342,265.741,234.231z M366.605,494.925c-28.237,0-51.2-22.963-51.2-51.2 c0-12.117,4.25-23.245,11.307-32.017c1.399-1.741,2.91-3.371,4.506-4.898c0.247-0.239,0.512-0.461,0.759-0.691 c1.502-1.374,3.063-2.671,4.71-3.857c0.171-0.128,0.333-0.256,0.503-0.375c1.903-1.34,3.891-2.551,5.956-3.618l0.017-0.009 c2.099-1.084,4.284-2.022,6.536-2.807c0.12-0.043,0.239-0.085,0.358-0.128l1.613-0.563c4.727-1.442,9.737-2.236,14.933-2.236 c28.237,0,51.2,22.963,51.2,51.2C417.805,471.962,394.842,494.925,366.605,494.925z"></path> </g> </g> </g></svg>