<svg id="Capa_1" data-name="Capa 1" xmlns="http://www.w3.org/2000/svg" viewBox="0 0 113.76 484.23">
    <defs>
        <style>
            .cls-1 {
                fill: #ffffff;
            }
        </style>
    </defs>
    <path class="cls-1"
        d="M302,433.22c-3.07.4-65.95.56-88.89.24-.64,0-1.28-.07-1.75-.1A3.13,3.13,0,0,1,211,433a.82.82,0,0,1-.07-.28c0-.47-.09-.94-.09-1.41l0-257.3a6.78,6.78,0,0,1,.18-1,12.34,12.34,0,0,1,1.54-.3c.66-.06,1.32,0,2,0q42,0,84,0A7.53,7.53,0,0,1,302,173a5.53,5.53,0,0,1,.24,1C302.5,178.1,302.3,431.06,302,433.22Zm-6.28-128.75a18.91,18.91,0,0,0-3.31,2.92q-29.62,28.92-59.23,57.86l-14.6,14.27a3.77,3.77,0,0,0-1.44,2.91c.06,9.54,0,19.09.05,28.64a5.72,5.72,0,0,0,.34,1.2c.89-.83,1.59-1.43,2.25-2.08l14.93-14.75q29.58-29.18,59.15-58.35c2.18-2.15,2-1.54,2-4.66q0-12.48,0-24.95C295.86,306.64,295.8,305.8,295.75,304.47Zm-78.43,33c1.1-1,1.73-1.61,2.33-2.2l41.18-40.62q16.65-16.42,33.32-32.84a5.21,5.21,0,0,0,1.75-4.22c-.1-3.77,0-7.56,0-11.34,0-4.91,0-9.83,0-14.74,0-.6.29-1.36-.68-1.78-.71.67-1.47,1.35-2.21,2.07l-21.08,20.61-52.73,51.53c-2.27,2.21-1.94,1.6-2,4.65q0,12.77,0,25.53C217.2,335,217.26,336,217.32,337.47Zm.05-82.19c1.06-1.16,1.71-1.84,2.32-2.53l48.12-54.67Q274.92,190,282,181.9c.39-.45,1.1-.81.77-1.76-.7,0-1.44-.13-2.18-.13h-20.4c-.38,0-.76,0-1.13,0a2.28,2.28,0,0,0-2,.91c-.3.37-.62.72-.92,1.08Q237.41,204,218.63,226a5.38,5.38,0,0,0-1.46,3.81c.06,7.65,0,15.3,0,23C217.2,253.35,217.28,254,217.37,255.28Zm22.57,170.84h3c7.94,0,15.89,0,23.83,0,1.69,0,3.38-.13,5.07-.2,1.17-1.09,2.37-2.17,3.51-3.29,6.33-6.24,12.64-12.5,19-18.71a4.55,4.55,0,0,0,1.58-3.72c-.11-2.54,0-5.1,0-7.65q0-9.51,0-19c0-.6.28-1.35-.51-1.73C293,373.62,241.66,423.87,239.94,426.12Z"
        transform="translate(-199.12 -13.89)" />
    <path class="cls-1"
        d="M288.55,117.57a105.59,105.59,0,0,0,.11,14.42c.56.09,1.18.23,1.81.27,1.42.07,2.84,0,4.25.15a8.3,8.3,0,0,1,7.46,9.05c0,.37-.08.74-.13,1.29a7.05,7.05,0,0,0,1.26.45c5.26.89,8.06,4.34,9.19,9.21a13,13,0,0,1-2.1,10.81,10.25,10.25,0,0,1-8.42,4.5c-.66,0-1.32,0-2,0H212.09c-.66,0-1.33,0-2,0a10.25,10.25,0,0,1-8.45-4.44,13.65,13.65,0,0,1-.06-15.69,10,10,0,0,1,7.29-4.41c.64-.06,1.28-.2,2-.31,0-.92,0-1.76,0-2.59a8.06,8.06,0,0,1,6.94-7.78,53.24,53.24,0,0,1,5.66-.24c.85,0,1.69-.06,2.54-.13.16,0,.31-.18.52-.3a3,3,0,0,0,.21-.76c0-3.68,0-7.37,0-11-.63-1.09-1.75-1.49-2.67-2.12-11.56-8-19.41-18.75-23-32.34a56.85,56.85,0,1,1,89.81,30.11Zm9.87-35.18c.24-1.35.47-2.35.57-3.36.16-1.5.27-3,.31-4.52a43.55,43.55,0,0,0-17-36.56,69.87,69.87,0,0,0-24-12.43,8.34,8.34,0,0,0-1.6-.17,18.09,18.09,0,0,0-1.14,4.89c1,.31,1.89.58,2.77.88a62.33,62.33,0,0,1,22.36,12.42A38.77,38.77,0,0,1,291.89,60a41.84,41.84,0,0,1,1.79,18.45,6.19,6.19,0,0,0-.06,3.18Z"
        transform="translate(-199.12 -13.89)" />
    <path class="cls-1"
        d="M255.93,463H211.12c-6.27,0-10.37-3.25-11.67-9.36A13,13,0,0,1,202,442.42a9.67,9.67,0,0,1,7.82-3.93h91.31c5.64,0,9.46,2.86,11.09,8.3a13.11,13.11,0,0,1-.75,9.93c-2,4-5.18,6.33-9.9,6.31C286.37,463,271.15,463,255.93,463Z"
        transform="translate(-199.12 -13.89)" />
    <path class="cls-1"
        d="M238.82,482.37c-9.67-1.74-12.92-8.92-11.83-15.81a11.21,11.21,0,0,1,1.51-.3c.66-.06,1.32,0,2,0H284.9c1,0,2.05.06,3,.08,1.67,5.87-1.33,13.36-9.56,15.68-.72.58-.71,1.49-1,2.28-2.46,6.91-7.15,11.49-14.31,13.25a19.82,19.82,0,0,1-23.43-12.64C239.35,484.1,239.11,483.28,238.82,482.37Z"
        transform="translate(-199.12 -13.89)" />
</svg>