<?xml version="1.0" encoding="utf-8"?>
<!-- Generator: Adobe Illustrator 24.3.0, SVG Export Plug-In . SVG Version: 6.00 Build 0)  -->
<svg version="1.1" id="Capa_1" transform="rotate(45)" xmlns="http://www.w3.org/2000/svg"
    xmlns:xlink="http://www.w3.org/1999/xlink" x="0px" y="0px" viewBox="0 0 800 800"
    style="enable-background:new 0 0 800 800;" xml:space="preserve">
    <style type="text/css">
        .st0 {
            fill: #EB1616;
            stroke: #EB1616;
            stroke-width: 2.0987;
            stroke-miterlimit: 8.3948;
        }

        .st1 {
            fill: #FFFFFF;
            stroke: #FFFFFF;
            stroke-width: 2.0987;
            stroke-miterlimit: 8.3948;
        }
    </style>
    <g id="SVGRepo_bgCarrier">
    </g>
    <g id="SVGRepo_tracerCarrier">
    </g>
    <path class="st0" d="M643.3,683.9c3.4-12.4,4.2-25.6,1.6-38.7c-7.1-35.4-35.5-61.5-69.1-65.2c-0.2-0.1-0.3-0.3-0.6-0.3
	c-37.3-5.4-65.2-61.6-83.6-83.8c-18.4-22.2-51.7-58.3-68.7-74.8c-1-1-2.7-3.3-4.9-6.5l52.6-356.1l-88.9,284.4c0,0-0.8,2.6-2.3,7.2
	c-58.1-101.2-152-273.8-152-273.8s116.2,348,120.3,360.1c-21,50.8-43.3,115.4-95.1,118.1c-0.2,0-0.1,0.2-0.3,0.3
	c-39.5,1.9-71.2,38.6-71.2,83.9c0,46.4,33.4,84.2,74.3,84.2c25.2,0,48.7-17.4,69.8-35.1c5.3-21.6,4.5-31.2,4.5-49.1
	c0-11.7-2.1-22.8-5.9-32.9l0,0c-6.3-25.1,53.4-148.4,64.8-155.9c57.1,35,130.1,124.9,112.4,171c0.1,0,0.3,0,0.4,0
	c-8.7,16.7-11.7,35.8-7.8,54.7c7.6,38.2,40.1,66,77.2,66c4.9,0,9.8-0.5,14.6-1.4c17.3-3.5,32.2-13,43.3-26.8
	c7.5,1.7,17.8,5.2,25.1,12.5c26,27.9,50.8,7.6,56.5,0C715.3,718.6,655.9,712.4,643.3,683.9z M255.3,697.4
	c-26.9,0-48.9-26.4-48.9-58.8c0-32.4,21.9-58.8,48.9-58.8c8.9,0,17.2,3.1,24.4,8.1c1.5,1.2,3,2.3,4.5,3.4
	c12.1,10.7,20.1,27.8,20.1,47.3C304.2,671.1,282.2,697.4,255.3,697.4z M379.3,423.4c-8.9,0-16.1-7.2-16.1-16.1
	c0-8.9,7.2-16.1,16.1-16.1c8.9,0,16.1,7.2,16.1,16.1C395.4,416.1,388.2,423.4,379.3,423.4z M612.6,692.2
	c-7.5,12.1-19.2,20.2-32.6,22.9c-3.1,0.6-6.4,1-9.6,1c-25,0-47-19.2-52.3-45.6c-2.9-14.8-0.3-29.7,7.3-42
	c7.6-12.1,19.1-20.2,32.6-22.9c3.2-0.6,6.4-1,9.6-1c25,0,47,19.2,52.3,45.6C622.9,665,620.3,679.9,612.6,692.2z" />
    <path class="st1" d="M282.4,281.1l-6.9-22.8c-18.4-1.3-36.4-2.5-53.4-4c-20.4-1.9-39.7-3.7-57.4-6c-17.7-2.4-33.9-4.8-48.1-7.6
	c-14.2-2.9-26.5-5.9-36.4-9c-9.9-3.2-17.6-6.2-22.6-8.5c-5.1-2.5-7.7-3.9-7.7-3.9s2.4,1.8,7,5c4.7,3.1,11.9,7.6,21.5,12
	c19.2,9.1,48.3,18.7,83.8,26.3c17.8,3.9,37.1,7.5,57.7,10.5C239.8,276.1,260.8,278.9,282.4,281.1z" />
    <path class="st1" d="M357.7,287.8c10.2,0.7,20.5,1.3,30.8,2l7.7-24.6c-13.6-0.7-27.2-1.5-40.7-2.2c-4-0.3-8-0.5-12-0.7L357.7,287.8z
	" />
    <path class="st1" d="M798.9,336.5c-0.7-1.3-2-3.1-3.8-5.2c-3.8-4.2-10.5-9.7-20.2-14.5c-9.6-4.8-21.7-9.5-36-13.6
	c-14.2-4.2-30.5-8-48.4-11.2c-17.9-3.3-37.3-6.3-57.9-8.8c-20.6-2.5-42.3-5-64.8-6.8c-22.5-1.8-45.7-3.9-69.3-5.2
	c-16-1-32.2-2-48.5-2.9l-3.3,25c16.9,0.8,33.7,1.6,50.4,2.5c23.6,1.3,46.8,1.9,69.2,3.1c22.4,1.2,44.1,2.1,64.6,3.3
	c20.5,1.4,39.8,2.7,57.6,4.3c35.5,3.4,64.9,8.2,84.5,14.9c9.7,3.4,16.9,7.3,21.2,10.8c2.1,1.8,3.7,3.3,4.5,4.4
	c0.9,1.1,1.4,1.7,1.4,1.7S799.7,337.7,798.9,336.5z" />
    <path class="st1" d="M93.6,211.4c14.4,4.8,30.9,9.4,49.1,13.3c18.2,3.9,38.1,7.5,59.2,10.3c21.1,2.9,43.4,5.5,66.4,7.3
	c0.8,0,1.6,0.1,2.4,0.2l-6.8-22.7c-20.8-1.1-40.9-2-60-3.5c-20.9-1.7-40.6-3.4-58.7-5.8c-18.1-2.4-34.6-5.1-49-8.3
	c-14.4-3.2-26.9-6.7-36.9-10.3c-10-3.6-17.6-7.1-22.8-9.7c-5-2.8-7.7-4.3-7.7-4.3s2.4,1.9,6.9,5.5c4.8,3.3,11.8,8.3,21.5,13.2
	C67,201.4,79.2,206.7,93.6,211.4z" />
    <path class="st1" d="M408.9,224.4c-23-0.7-45.9-1.3-68.5-2c-6.5-0.3-13-0.5-19.5-0.7l13.9,24.9c1.6,0.1,3.1,0.2,4.7,0.2
	c20.4,0.8,41,1.7,61.6,2.5L408.9,224.4z" />
    <path class="st1"
        d="M624.6,237.9c-21.1-2.6-43.4-4.9-66.5-6.4c-23.1-1.6-46.9-3.3-71.1-4.2c-10.4-0.4-20.9-0.8-31.5-1.2l-3.3,24.8
	c11.4,0.3,22.7,0.6,33.9,0.9c24.1,0.9,47.9,1.1,70.8,2c22.9,1,45,1.7,66,3c20.9,1.4,40.6,3,58.7,5.1c18.1,2.2,34.5,4.9,48.9,8.2
	c14.4,3.4,26.7,7.2,36.3,11.5c9.6,4.3,16.7,8.9,21,12.6c2.3,1.7,3.7,3.4,4.8,4.4c1.1,1.1,1.6,1.6,1.6,1.6s-0.5-0.6-1.3-1.8
	c-0.9-1.2-2.1-3.1-4.1-5.2c-3.8-4.4-10.1-10.4-19.6-16.1c-18.7-11.7-48.7-22.2-85.2-29.6C665.7,243.7,645.7,240.4,624.6,237.9z" />
    <path class="st1" d="M310.7,197.6c24.2,1,48.8,2,73.4,3c10.7,0.3,21.4,0.6,32,0.8l7.7-24.7c-13-0.5-26-1-39-1.5
	c-24.5-0.7-49-1.4-73.2-2.1c-6.1-0.2-12.2-0.5-18.2-0.6l13.9,24.9C308.5,197.5,309.6,197.5,310.7,197.6z" />
    <path class="st1" d="M114,175.4c18.2,3.9,38.1,7.5,59.2,10.3c21.1,2.9,43.4,5.5,66.4,7.3c5.5,0.4,11.1,0.8,16.6,1.3l-7-23.2
	c-2.7-0.1-5.5-0.2-8.2-0.3c-22.9-1.2-45-2.2-65.9-3.8c-20.9-1.7-40.6-3.5-58.7-5.8c-18.1-2.4-34.6-5.1-49-8.3
	c-14.4-3.2-26.9-6.7-36.9-10.3c-10-3.6-17.6-7.1-22.8-9.7c-5-2.8-7.7-4.3-7.7-4.3s2.4,1.9,6.9,5.5c4.7,3.3,11.8,8.3,21.5,13.2
	c9.7,4.9,21.9,10.2,36.3,15C79.2,166.9,95.7,171.5,114,175.4z" />
    <path class="st1" d="M458.6,202.5c23.7,0.8,47,1,69.5,1.9c22.9,0.9,45,1.7,65.9,3c20.9,1.4,40.6,3,58.7,5.1
	c18.1,2.2,34.6,4.9,48.9,8.1c14.3,3.4,26.7,7.2,36.3,11.5c9.6,4.3,16.7,8.9,21,12.6c2.3,1.7,3.7,3.4,4.8,4.4c1,1.1,1.6,1.6,1.6,1.6
	s-0.4-0.6-1.3-1.8c-0.9-1.2-2.1-3.1-4.1-5.2c-3.8-4.4-10.1-10.4-19.6-16.1c-18.7-11.7-48.7-22.2-85.2-29.6
	c-18.3-3.8-38.2-7-59.3-9.6c-21.1-2.6-43.4-4.9-66.5-6.5c-21.9-1.5-44.5-3.1-67.5-4L458.6,202.5z" />
</svg>